<?xml version="1.0" encoding="UTF-8"?>
<svg id="_Слой_2" data-name="Слой 2" xmlns="http://www.w3.org/2000/svg" viewBox="0 0 170.08 40.41">
  <defs>
    <style>
      .cls-1 {
        fill: #1d1d1b;
      }
    </style>
  </defs>
  <g id="_Слой_1-2" data-name="Слой 1">
    <g>
      <path class="cls-1" d="M20.43,12.49c1.9.98,3.4,2.46,4.49,4.44,1.09,1.98,1.64,4.4,1.64,7.26v15.66h0c-2.97,0-5.37-2.4-5.37-5.37v-10.17c0-2.49-.74-4.46-2.2-5.94-1.47-1.47-3.32-2.2-5.54-2.2-1.51,0-2.88.4-4.13,1.19-1.24.79-2.21,1.86-2.91,3.19-.7,1.34-1.05,2.78-1.05,4.32v14.98h0c-2.97,0-5.37-2.4-5.37-5.37V0h0c2.81,0,5.09,2.28,5.09,5.09v10.29c1.09-1.32,2.43-2.37,4.01-3.17,1.58-.79,3.22-1.19,4.92-1.19,2.37,0,4.51.49,6.42,1.47Z"/>
      <path class="cls-1" d="M37.08,38.46c-2.3-1.3-4.11-3.07-5.43-5.31-1.32-2.24-1.98-4.72-1.98-7.43s.66-5.19,1.98-7.43c1.32-2.24,3.13-4.01,5.43-5.31,2.3-1.3,4.84-1.95,7.63-1.95s5.27.65,7.55,1.95c2.28,1.3,4.08,3.07,5.4,5.31,1.32,2.24,1.98,4.72,1.98,7.43s-.66,5.19-1.98,7.43c-1.32,2.24-3.12,4.01-5.4,5.31-2.28,1.3-4.8,1.95-7.55,1.95s-5.33-.65-7.63-1.95ZM49.46,34.17c1.43-.85,2.56-2.02,3.39-3.5.83-1.49,1.24-3.14,1.24-4.95s-.41-3.46-1.24-4.95c-.83-1.49-1.96-2.66-3.39-3.5-1.43-.85-3.02-1.27-4.75-1.27s-3.38.42-4.83,1.27c-1.45.85-2.59,2.02-3.42,3.5-.83,1.49-1.24,3.14-1.24,4.95s.41,3.46,1.24,4.95c.83,1.49,1.97,2.66,3.42,3.5,1.45.85,3.06,1.27,4.83,1.27s3.32-.42,4.75-1.27Z"/>
      <path class="cls-1" d="M104.14,12.49c1.79.98,3.2,2.46,4.24,4.44,1.04,1.98,1.55,4.4,1.55,7.26v15.66h0c-2.97,0-5.37-2.4-5.37-5.37v-10.17c0-2.49-.71-4.46-2.12-5.94-1.41-1.47-3.19-2.2-5.34-2.2-2.34,0-4.22.83-5.65,2.49-1.43,1.66-2.15,3.69-2.15,6.1v15.09h0c-2.97,0-5.37-2.4-5.37-5.37v-10.17c0-2.49-.71-4.46-2.12-5.94-1.41-1.47-3.19-2.2-5.34-2.2-2.34,0-4.22.83-5.65,2.49-1.43,1.66-2.15,3.69-2.15,6.1v15.09h0c-2.97,0-5.37-2.4-5.37-5.37V11.59h.62c2.47,0,4.46,2,4.46,4.46h0c1.02-1.54,2.33-2.77,3.93-3.67,1.6-.9,3.31-1.36,5.12-1.36,2.22,0,4.23.48,6.02,1.44,1.79.96,3.17,2.38,4.15,4.27,1.21-1.92,2.9-3.41,5.05-4.48,1.69-.83,3.53-1.23,5.4-1.23,2.26,0,4.29.49,6.08,1.47Z"/>
      <path class="cls-1" d="M135.12,12.89c2.17,1.24,3.83,3.01,5,5.28,1.17,2.28,1.75,4.95,1.75,8,0,.79-.02,1.38-.06,1.75h-23.17c.38,2.19,1.4,3.98,3.08,5.4,1.68,1.41,3.63,2.12,5.85,2.12s4.21-.54,5.67-1.61c2.21-1.62,4.92-2.4,7.67-2.4h0c-.9,2.64-2.58,4.8-5.03,6.47s-5.22,2.52-8.31,2.52c-2.75,0-5.24-.63-7.46-1.89-2.22-1.26-3.96-3.01-5.2-5.26-1.24-2.24-1.86-4.76-1.86-7.55s.62-5.3,1.86-7.55c1.24-2.24,2.97-3.99,5.17-5.26,2.2-1.26,4.68-1.89,7.43-1.89,2.9,0,5.44.62,7.6,1.86ZM121.67,17.86c-1.6,1.39-2.59,3.18-2.97,5.37h17.35c-.23-2.26-1.14-4.07-2.74-5.43-1.6-1.36-3.57-2.03-5.91-2.03s-4.14.7-5.74,2.09Z"/>
      <path class="cls-1" d="M159.35,34.56l-4.14-5.39-4.28,5.54c-2.51,3.24-6.37,5.14-10.47,5.14h0l11.31-14.36-10.85-13.9h0c4.2,0,8.17,1.96,10.72,5.3l3.69,4.82,3.58-4.78c2.52-3.36,6.47-5.34,10.67-5.34h0l-10.8,13.74,11.3,14.53h0c-4.2,0-8.17-1.96-10.73-5.29Z"/>
    </g>
  </g>
</svg>